# xmcd CD database file
#
# Track frame offsets:
#	182
#	11540
#	22810
#	35950
#	50467
#	63512
#	73550
#	83232
#	94937
#	106247
#	118910
#	128090
#	138240
#	149427
#	159127
#	172085
#	183742
#	194385
#	206622
#	219287
#	229920
#	240947
#	251022
#
# Disc length: 3503 seconds
#
# Revision: 2
# Processed by: cddbd v1.5.2PL0 Copyright (c) Steve Scherf et al.
# Submitted via: CDex 1.51
#
DISCID=480dad17
DTITLE=Maxine Brown - Maxine Brown's Greatest Hits
DYEAR=1994
DGENRE=Soul/R&B
TTITLE0=All In My Mind
TTITLE1=Funny
TTITLE2=Ask Me
TTITLE3=Coming Back To You
TTITLE4=Since I Found You
TTITLE5=Little Girl Lost
TTITLE6=Put Yourself In Myself
TTITLE7=Oh No Not My Baby
TTITLE8=It's Gonna Be Alright
TTITLE9=Something You Got [with Chuck Jsckson]
TTITLE10=One Step At A Time
TTITLE11=Can't Let You Go Out Of My Site
TTITLE12=I Need You So [with Chuck Jsckson]
TTITLE13=If You Got To Make A Fool Of Somebody
TTITLE14=One In A Million
TTITLE15=Anything You Do Is Alright
TTITLE16=Let Me Give You My Loving
TTITLE17=The Secret Of Living
TTITLE18=Hold On I'm Coming [with Chuck Jsckson]
TTITLE19=Daddy's Home [with Chuck Jsckson]
TTITLE20=Baby Cakes
TTITLE21=Slipping Through My Fingers
TTITLE22=Soul Serenade
EXTD=YEAR: 1994
EXTT0=
EXTT1=
EXTT2=
EXTT3=
EXTT4=
EXTT5=
EXTT6=
EXTT7=
EXTT8=
EXTT9=
EXTT10=
EXTT11=
EXTT12=
EXTT13=
EXTT14=
EXTT15=
EXTT16=
EXTT17=
EXTT18=
EXTT19=
EXTT20=
EXTT21=
EXTT22=
PLAYORDER=
